# AST/ASF file generated using VICON BodyLanguage
# -----------------------------------------------
:version 1.10
:name VICON
:units
  mass 1.0
  length 0.1
  angle deg
:documentation
   .ast/.asf automatically generated from VICON data using
   VICON BodyBuilder and BodyLanguage model FULLBODY5.MOD
:root
   order TX TY TZ RZ RY RX
   axis XYZ
   position 0 0 0  
   orientation 0 -0 0 
:bonedata
  begin
     id 1 
     name lhipjoint
     direction 0.961525 -0.229516 0.150972 
     length 0.502153 
     axis 0 -0 0  XYZ
  end
  begin
     id 2 
     name lfemur
     direction 0.173648 -0.984808 0  
     length 1.83052  
     axis 0 -0 10  XYZ
    dof rx ry rz
    limits (-180.0 180.0)
           (-180.0 180.0)
           (-180.0 180.0)
  end
  begin
     id 3 
     name ltibia
     direction 0.173629 -0.984811 0   
     length 1.50296   
     axis 0 -0 10   XYZ
    dof rx ry rz
    limits (-180.0 180.0)
           (-180.0 180.0)
           (-180.0 180.0)
  end
  begin
     id 4 
     name lfoot
     direction 7.59329e-012 -0.227408 0.9738   
     length 0.574743   
     axis -90 -1.73656e-015 10   XYZ
    dof rx ry rz
    limits (-180.0 180.0)
           (-180.0 180.0)
           (-180.0 180.0)
  end
  begin
     id 5 
     name ltoes
     direction 7.79885e-012 -4.41741e-011 1   
     length 0.28489   
     axis -90 -1.73656e-015 10   XYZ
    dof rx ry rz
    limits (-180.0 180.0)
           (-180.0 180.0)
           (-180.0 180.0)
  end
  begin
     id 6 
     name rhipjoint
     direction -0.970498 -0.201437 0.132502   
     length 0.572149  
     axis 0 -0 0  XYZ 
  end
  begin
     id 7 
     name rfemur
     direction -0.173648 -0.984808 0   
     length 1.71866   
     axis 0 -0 -10   XYZ
    dof rx ry rz
    limits (-180.0 180.0)
           (-180.0 180.0)
           (-180.0 180.0)
  end
  begin
     id 8 
     name rtibia
     direction -0.173624 -0.984812 0   
     length 1.42623   
     axis 0 -0 -10   XYZ
    dof rx ry rz
    limits (-180.0 180.0)
           (-180.0 180.0)
           (-180.0 180.0)
 end
 begin
     id 9 
     name rfoot
     direction -7.12931e-012 -0.404275 0.914637   
     length 0.524692  
     axis -90 1.73656e-015 -10   XYZ
    dof rx ry rz
    limits (-180.0 180.0)
           (-180.0 180.0)
           (-180.0 180.0)
  end
  begin
     id 10 
     name rtoes
     direction -7.79289e-012 -4.41454e-011 1   
     length 0.254983   
     axis -90 1.73656e-015 -10   XYZ
    dof rx ry rz
    limits (-180.0 180.0)
           (-180.0 180.0)
           (-180.0 180.0)
  end
  begin
     id 11 
     name lowerback
     direction -0.0214086 0.993738 0.109665   
     length 0.417614   
     axis 0 -0 0   XYZ
    dof rx ry rz
    limits (-180.0 180.0)
           (-180.0 180.0)
           (-180.0 180.0)
  end
  begin
     id 12 
     name upperback
     direction 8.15962e-005 0.99996 0.00893412   
     length 0.419234   
     axis 0 -0 0   XYZ
    dof rx ry rz
    limits (-180.0 180.0)
           (-180.0 180.0)
           (-180.0 180.0)
  end
  begin
     id 13 
     name thorax
     direction 0.00826031 0.999067 -0.0423848   
     length 0.424697   
     axis 0 -0 0   XYZ
    dof rx ry rz
    limits (-180.0 180.0)
           (-180.0 180.0)
           (-180.0 180.0)
  end
  begin
     id 14 
     name lowerneck
     direction -0.0196262 0.994272 -0.105058   
     length 0.355877   
     axis 0 -0 0   XYZ
    dof rx ry rz
    limits (-180.0 180.0)
           (-180.0 180.0)
           (-180.0 180.0)
  end
  begin
     id 15 
     name upperneck
     direction 0.000117372 0.999091 0.0426261   
     length 0.351054   
     axis 0 -0 0   XYZ
    dof rx ry rz
    limits (-180.0 180.0)
           (-180.0 180.0)
           (-180.0 180.0)
  end
  begin
     id 16
     name head
     direction 0.00157618 0.999651 0.0263619  
     length 0.374844  
     axis 0 -0 0   XYZ
    dof rx ry rz
    limits (-180.0 180.0)
           (-180.0 180.0)
           (-180.0 180.0)
  end
  begin
     id 17 
     name lshoulderjoint
     direction 0.981627 -0.190809 0  
     length 0.701763  
     axis 0 -0 -11   XYZ
    dof rx ry rz
    limits (-180.0 180.0)
           (-180.0 180.0)
           (-180.0 180.0)
  end
  begin
     id 18 
     name lhumerus
     direction 0.48481 -0.87462 -1.80676e-026   
     length 0.994704   
     axis -180 5.14477e-009 -151   XYZ
    dof rx ry rz
    limits (-180.0 180.0)
           (-180.0 180.0)
           (-180.0 180.0)
  end
  begin
     id 19
     name lradius
     direction 0.48481 -0.87462 -3.2569e-026   
     length 0.617638   
     axis -180 5.14477e-009 -151   XYZ
    dof rx ry rz
    limits (-180.0 180.0)
           (-180.0 180.0)
           (-180.0 180.0)
  end
  begin
     id 20
     name lwrist
     direction 0.48481 -0.87462 -6.73202e-026   
     length 0.308819   
     axis -180 5.14477e-009 -151   XYZ
    dof rx ry rz
    limits (-180.0 180.0)
           (-180.0 180.0)
           (-180.0 180.0)
  end
  begin
     id 21 
     name lhand
     direction 0.478366 -0.863761 -0.158376   
     length 0.291656   
     axis -180 5.14477e-009 -151   XYZ
    dof rx ry rz
    limits (-180.0 180.0)
           (-180.0 180.0)
           (-180.0 180.0)
  end
  begin
     id 22 
     name rshoulderjoint
     direction -0.981627 -0.190809 0   
     length 0.66654  
     axis 0 -0 11   XYZ 
    dof rx ry rz
    limits (-180.0 180.0)
           (-180.0 180.0)
           (-180.0 180.0)
  end
  begin
     id 23 
     name rhumerus
     direction -0.48481 -0.87462 1.77576e-026  
     length 1.15089   
     axis 180 5.14477e-009 151   XYZ
    dof rx ry rz
    limits (-180.0 180.0)
           (-180.0 180.0)
           (-180.0 180.0)
  end
  begin
     id 24 
     name rradius
     direction -0.48481 -0.87462 3.79421e-026   
     length 0.613887   
     axis 180 5.14477e-009 151   XYZ
    dof rx ry rz
    limits (-180.0 180.0)
           (-180.0 180.0)
           (-180.0 180.0)
  end
  begin
     id 25 
     name rwrist
     direction -0.48481 -0.87462 5.43623e-026   
     length 0.306944   
     axis 180 5.14477e-009 151   XYZ
    dof rx ry rz
    limits (-180.0 180.0)
           (-180.0 180.0)
           (-180.0 180.0)
  end
  begin
     id 26
     name rhand
     direction -0.479273 -0.864638 -0.150661   
     length 0.306429   
     axis 180 5.14477e-009 151   XYZ
    dof rx ry rz
    limits (-180.0 180.0)
           (-180.0 180.0)
           (-180.0 180.0)
  end
:hierarchy
  begin
    root lhipjoint rhipjoint lowerback 
    lhipjoint lfemur
    lfemur ltibia
    ltibia lfoot
    lfoot ltoes
    rhipjoint rfemur
    rfemur rtibia
    rtibia rfoot
    rfoot rtoes
    lowerback upperback
    upperback thorax
    thorax lowerneck lshoulderjoint rshoulderjoint
    lowerneck upperneck
    upperneck head
    lshoulderjoint lhumerus
    lhumerus lradius
    lradius lwrist
    lwrist lhand
    rshoulderjoint rhumerus
    rhumerus rradius
    rradius rwrist
    rwrist rhand
  end

:FULLY-SPECIFIED
:DEGREES
727
root 0.218064 3.43282 -0.4139 61.5655 -75.6937 59.4084
lowerback -15.2034 -4.74456 -0.776366
upperback -2.68159 -6.30518 0.597912
thorax 5.78361 -3.1596 -0.195821
lowerneck 12.9839 1.99372 -4.164
upperneck -5.57221 2.16278 2.46334
head -3.83408 1.02217 1.27502
rshoulderjoint 1.39892 -3.5677 -32.427
rhumerus -16.2441 -36.1955 -49.7904
rradius 24.1456 -2.8625e-013 -1.16488e-013
rwrist 4.52057e-013 10.2231 -4.8478e-014
rhand 14.719 -9.06831 25.9874
lshoulderjoint 2.11349 7.9894 25.8699
lhumerus 13.8918 -1.08197 50.976
lradius 27.5608 6.69252e-014 4.37326e-014
lwrist 1.16449e-012 -12.0963 2.60222e-013
lhand 21.4676 11.4235 -21.7081
rfemur -32.6614 3.28593 10.2529
rtibia 6.57762 7.95139e-015 -1.59028e-015
rfoot 4.93801 16.0594 -16.8485
rtoes 4.05521e-014 -1.45113e-013 1.41535e-013
lfemur -0.210212 -11.0352 -18.3486
ltibia 32.3072 1.78906e-014 1.98785e-014
lfoot -19.347 1.82573 8.81851
ltoes -8.90555e-014 -4.09496e-014 4.85035e-014
728
root 0.163824 3.43739 -0.415259 61.7864 -75.6979 59.9983
lowerback -15.5893 -4.55313 -0.151088
upperback -2.74418 -6.16279 0.701816
thorax 5.87222 -3.07933 -0.433026
lowerneck 12.9459 1.97681 -4.33022
upperneck -5.07625 2.08485 2.18604
head -4.10421 1.00868 1.36472
rshoulderjoint 1.42267 -3.61956 -32.4743
rhumerus -16.0982 -36.5599 -49.7154
rradius 24.0321 -8.0468e-013 -6.83819e-014
rwrist 1.32084e-013 10.1783 4.96021e-013
rhand 14.7859 -8.93574 25.6585
lshoulderjoint 2.13146 8.17201 25.6725
lhumerus 13.5149 -0.414752 51.429
lradius 26.7787 -2.42517e-014 -2.94201e-014
lwrist 1.17978e-012 -11.8723 2.05567e-013
lhand 22.0404 11.1878 -20.9886
rfemur -32.4181 3.2919 10.7689
rtibia 7.52342 3.18055e-015 1.59028e-015
rfoot 5.9446 15.038 -15.9954
rtoes 2.41722e-013 -9.93923e-015 -2.14687e-013
lfemur -1.04856 -10.365 -17.7869
ltibia 34.8035 -2.06736e-014 1.35174e-014
lfoot -17.8819 2.79544 8.11518
ltoes -2.19458e-013 -4.92986e-014 7.95139e-015
729
root 0.111107 3.44301 -0.416556 62.42 -75.9359 61.0373
lowerback -15.6853 -4.27926 0.498053
upperback -2.80781 -5.91878 0.819155
thorax 5.8041 -2.9511 -0.623869
lowerneck 12.9692 1.96005 -4.43603
upperneck -4.92375 2.0228 1.98241
head -4.04968 0.988557 1.31869
rshoulderjoint 1.43572 -3.62429 -32.6277
rhumerus -15.9087 -36.4607 -49.8144
rradius 23.9312 -1.87653e-013 8.07066e-014
rwrist 3.63184e-014 9.86639 2.9539e-013
rhand 14.7769 -8.82607 25.4652
lshoulderjoint 2.14245 8.27849 25.5646
lhumerus 13.0562 0.368425 51.99
lradius 25.9937 1.47101e-014 1.43125e-014
lwrist 1.52615e-013 -11.622 4.38362e-014
lhand 22.5747 10.9579 -20.2592
rfemur -31.912 3.50227 11.325
rtibia 8.24219 -4.77083e-015 -1.35174e-014
rfoot 6.51301 14.3705 -15.5553
rtoes 7.71285e-014 -5.97845e-014 4.13472e-014
lfemur -1.85419 -9.61561 -17.2217
ltibia 37.4796 1.15295e-014 1.19271e-014
lfoot -15.9871 3.94354 7.5647
ltoes -1.11319e-013 -1.15295e-014 3.69739e-014
730
root 0.0600339 3.44874 -0.417276 63.5952 -76.3227 62.5956
lowerback -15.594 -3.97334 1.14099
upperback -2.85999 -5.62881 0.935997
thorax 5.65166 -2.80226 -0.789402
lowerneck 12.9623 1.97033 -4.57494
upperneck -4.74137 1.99796 1.83895
head -3.98179 0.983862 1.2964
rshoulderjoint 1.42125 -3.55444 -32.8108
rhumerus -15.6619 -36.509 -49.9307
rradius 23.8658 -3.14875e-013 2.60408e-014
rwrist -8.43186e-014 9.78489 3.17909e-013
rhand 14.7581 -8.57978 25.1941
lshoulderjoint 2.16857 8.4336 25.477
lhumerus 12.5455 1.237 52.5671
lradius 25.2294 1.19271e-014 -3.02153e-014
lwrist 9.08165e-014 -11.3014 -4.29757e-014
lhand 23.1056 10.6684 -19.5299
rfemur -31.2766 3.878 11.85
rtibia 8.82498 -2.8625e-014 7.95139e-016
rfoot 6.68707 13.9577 -15.4577
rtoes 9.36276e-014 4.29872e-015 -9.85972e-014
lfemur -2.71294 -8.75009 -16.7136
ltibia 40.3335 -8.15017e-015 1.03368e-014
lfoot -13.6658 5.04884 7.18473
ltoes -6.04305e-014 -4.13472e-014 -1.98785e-015
731
root 0.0105734 3.45401 -0.417643 65.1328 -76.8008 64.4482
lowerback -15.3473 -3.64575 1.75874
upperback -2.90981 -5.29549 0.984091
thorax 5.41857 -2.63425 -0.995544
lowerneck 13.0115 1.97401 -4.64264
upperneck -4.57693 1.98033 1.77132
head -3.93199 0.97706 1.28646
rshoulderjoint 1.37309 -3.41486 -32.9203
rhumerus -15.3247 -35.9899 -50.1577
rradius 23.7952 -1.97194e-013 1.89243e-013
rwrist -2.02075e-013 9.70623 5.32413e-013
rhand 14.5175 -8.66378 25.106
lshoulderjoint 2.2044 8.53639 25.5378
lhumerus 11.9946 2.18849 53.1832
lradius 24.4431 -1.03368e-014 -2.38542e-014
lwrist -2.85241e-013 -11.1166 -9.23791e-014
lhand 23.5807 10.4964 -18.8554
rfemur -30.5073 4.34323 12.3252
rtibia 9.26807 -1.74931e-014 1.35174e-014
rfoot 6.45024 13.9869 -15.564
rtoes 2.23633e-014 -5.85172e-015 -2.57625e-013
lfemur -3.64548 -7.90578 -16.2958
ltibia 43.3617 -2.32578e-014 -1.43125e-014
lfoot -11.0641 6.49186 6.78654
ltoes -1.97194e-013 7.95139e-014 2.0276e-014
732
root -0.0379833 3.45849 -0.418969 67.0227 -77.3637 66.6525
lowerback -14.9749 -3.31603 2.30477
upperback -2.93718 -4.93864 1.0226
thorax 5.15282 -2.45669 -1.16359
lowerneck 13.1237 1.99595 -4.68903
upperneck -4.48891 1.99544 1.78858
head -3.92458 0.982502 1.29921
rshoulderjoint 1.28656 -3.19637 -32.9388
rhumerus -14.9554 -35.4685 -50.3493
rradius 23.7277 4.67542e-013 1.33981e-013
rwrist 4.25885e-013 9.34637 -2.01459e-013
rhand 14.4741 -8.34726 25.0004
lshoulderjoint 2.24273 8.63598 25.618
lhumerus 11.4361 3.17617 53.7369
lradius 23.6574 -6.91771e-014 5.725e-014
lwrist -5.83001e-014 -10.891 1.4575e-013
lhand 24.0463 10.2291 -18.2296
rfemur -29.6602 4.89729 12.8231
rtibia 9.67946 -2.70347e-014 -2.38542e-015
rfoot 5.98939 14.3494 -15.7868
rtoes 7.66936e-014 -4.40075e-014 3.65764e-014
lfemur -4.6494 -7.11156 -15.9005
ltibia 46.5002 8.15017e-015 1.51076e-014
lfoot -8.18973 8.00691 6.59076
ltoes -3.81667e-014 -6.20208e-014 2.5842e-014
